<?xml version="1.0" standalone="no"?><!-- Generator: Gravit.io --><svg xmlns="http://www.w3.org/2000/svg" xmlns:xlink="http://www.w3.org/1999/xlink" style="isolation:isolate" viewBox="0 0 265 265" width="265" height="265"><defs><clipPath id="_clipPath_apbeIucnBIv4n41C0gAFaanrbniLKj46"><rect width="265" height="265"/></clipPath></defs><g clip-path="url(#_clipPath_apbeIucnBIv4n41C0gAFaanrbniLKj46)"><g><path d=" M 80.185 11.546 Q 150.142 -11.808 195.466 17.269 Q 236.438 36.487 258.743 95.435 Q 273.15 155.329 247.931 196.606 Q 228.712 237.578 169.764 259.883 Q 110.409 273.974 69.534 248.731 Q 28.562 229.513 6.257 170.565 Q -8.15 110.671 17.069 69.394 Q 34.547 33.855 80.185 11.546 Z " fill="rgb(253,253,253)"/><path d=" M 115.484 6.254 Q 126.546 2.663 133.55 7.711 Q 138.938 8.715 141.045 16.701 Q 142.156 25.036 138.871 31.305 Q 141.412 31.717 139.249 33.826 L 138.008 34.805 L 138.386 37.327 L 134.284 37.743 L 134.323 39.324 L 135.302 40.565 L 129.997 43.542 L 129.658 42.601 L 130.899 41.622 C 127.272 43.316 124.682 42.614 121.873 40.048 C 113.218 32.139 108.253 18.996 113.942 7.874 L 113.942 7.874 L 115.484 6.254 Z  M 97.319 26.627 C 99.242 25.569 101.874 24.525 103.942 25.832 L 103.942 25.832 L 109.217 34.56 C 110.37 38.541 110.355 42.96 107.606 46.304 L 107.606 46.304 L 99.702 46.497 L 98.723 45.255 C 96.319 49.141 97.363 53.959 99.032 57.901 L 99.032 57.901 L 93.65 57.716 L 90.566 60.955 L 84.768 56.668 L 83.187 56.706 L 79.532 49.52 L 81.297 44.1 C 82.606 41.079 86.113 39.815 89.085 39.164 L 89.085 39.164 L 96.502 44.993 L 97.744 44.014 C 94.855 42.082 93.907 38.156 93.41 34.947 L 93.41 34.947 L 94.235 29.865 L 97.319 26.627 Z " fill-rule="evenodd" fill="rgb(1,1,1)"/><path d=" M 84.983 39.581 C 87.698 38.102 91.272 37.247 93.225 40.329 L 93.225 40.329 L 93.264 41.909 L 89.085 39.164 C 88.381 39.59 84.717 41.833 84.983 39.581 L 84.983 39.581 Z " fill="rgb(87,87,87)"/><path d=" M 16.129 69.733 L 11.056 82.194 L 16.129 69.733 Z  M 181.687 10.014 L 193.546 16.367 L 181.687 10.014 Z " fill-rule="evenodd" fill="rgb(255,255,255)"/><path d=" M 98.723 45.255 L 98.762 46.836 C 99.779 48.441 100.972 50.958 99.217 52.519 L 99.217 52.519 L 99.178 50.938 C 98.161 49.333 96.968 46.816 98.723 45.255 L 98.723 45.255 Z  M 84.768 56.668 L 89.926 60.654 L 86.425 59.79 L 84.768 56.668 Z  M 106.403 48.864 L 107.382 50.105 L 105.84 51.724 L 105.355 57.746 L 104.376 56.505 L 106.403 48.864 Z " fill-rule="evenodd" fill="rgb(87,87,87)"/><path d=" M 71.336 63.639 C 74.637 61.677 79.442 59.507 83.002 62.088 L 83.002 62.088 L 86.657 69.274 L 85.833 74.356 L 82.409 76.654 L 80.528 77.332 L 79.286 78.312 L 79.325 79.892 L 75.184 78.728 C 72.052 75.615 70.669 71.054 69.833 66.839 L 69.833 66.839 L 71.336 63.639 Z  M 106.141 51.084 L 107.76 52.626 L 109.341 52.588 L 112.279 56.312 L 119.203 54.877 L 126.05 50.281 L 131.092 49.525 L 132.974 48.847 L 140.877 48.654 L 141.856 49.895 L 147.878 50.38 L 147.616 52.601 L 149.876 54.444 L 148.634 55.423 L 152.174 57.867 L 153.754 57.828 L 154.433 59.71 C 155.055 62.376 156.266 65.476 159.029 66.557 L 159.029 66.557 L 158.165 70.057 L 160.803 74.421 L 159.26 76.041 L 160.24 77.282 L 158.998 78.261 C 160.759 81.019 162.839 85.352 159.87 88.046 L 159.87 88.046 L 158.629 89.025 L 157.465 93.166 L 154.681 95.764 C 155.762 97.729 156.427 100.347 154.196 101.786 L 154.196 101.786 L 152.615 101.825 C 152.79 104.005 153.273 107.548 155.931 108.07 L 155.931 108.07 L 153.186 112.25 L 154.166 113.491 L 155.746 113.452 L 155.523 117.254 L 153.302 116.992 L 154.436 124.556 L 155.377 124.216 L 155.338 122.636 L 157.597 124.479 L 157.335 126.699 L 158.014 128.581 L 159.071 132.983 L 157.451 131.441 L 156.21 132.42 C 160.302 134.837 163.242 138.753 165.324 142.953 L 165.324 142.953 L 164.955 153.717 L 167.176 153.979 L 171.432 159.885 L 171.509 163.046 Q 184.648 177.484 193.625 200.781 Q 195.445 215.308 190.781 226.788 L 182.771 235.525 L 182.809 237.106 C 178.949 243.44 171.268 246.353 164.412 247.994 L 164.412 247.994 L 150.788 247.062 L 149.808 245.82 L 147.927 246.499 L 143.786 245.335 C 133.436 238.922 127.018 227.876 122.843 216.745 L 122.843 216.745 L 121.331 206.66 C 118.029 205.845 117.524 201.285 117.337 198.533 L 117.337 198.533 L 116.581 193.49 C 109.91 188.368 105.674 180.702 102.793 172.95 L 102.793 172.95 L 102.978 167.568 L 100.757 167.306 C 97.829 160.009 93.882 152.934 88.25 147.367 L 88.25 147.367 L 88.512 145.146 L 86.892 143.604 L 87.077 138.222 C 82.604 136.965 80.384 132.426 79.243 128.292 L 79.243 128.292 L 80.106 124.791 L 78.487 123.249 L 78.895 114.066 L 80.136 113.086 Q 78.125 106.282 81.447 101.983 Q 77.626 100.969 82.271 96.902 Q 87.144 95.675 86.258 91.743 L 85.802 86.06 L 87.044 85.081 C 85.963 83.116 85.298 80.499 87.529 79.059 L 87.529 79.059 L 89.75 79.321 L 90.613 75.821 L 91.855 74.841 L 92.417 71.981 L 94.638 72.243 L 96.365 65.241 C 100.403 63.945 104.563 61.515 105.656 57.106 L 105.656 57.106 L 106.141 51.084 Z " fill-rule="evenodd" fill="rgb(1,1,1)"/><path d=" M 134.516 47.227 C 138.493 46.573 142.673 46.872 146.259 48.838 L 146.259 48.838 L 146.298 50.419 L 141.216 49.594 L 140.237 48.353 C 138.401 48.953 135.394 49.597 134.516 47.227 L 134.516 47.227 Z " fill="rgb(87,87,87)"/><path d=" M 67.698 83.023 C 69.866 81.791 72.857 80.505 75.262 81.89 L 75.262 81.89 L 78.5 84.974 L 78.616 89.716 C 76.581 91.128 71.471 94.318 69.171 91.528 C 67.477 89.474 66.383 85.493 67.698 83.023 L 67.698 83.023 Z " fill="rgb(1,1,1)"/><path d=" M 90.274 74.88 L 91.855 74.841 L 89.711 77.74 L 89.75 79.321 L 88.508 80.3 L 88.547 81.881 L 86.966 81.92 L 86.588 79.398 L 88.169 79.36 L 88.13 77.779 L 90.274 74.88 Z  M 69.811 91.829 C 72.764 93.847 76.706 91.678 79.256 90.016 L 79.256 90.016 L 70.489 93.71 L 69.811 91.829 Z  M 158.728 67.197 L 161.743 74.082 L 161.412 86.427 L 161.374 84.846 L 159.299 77.621 L 160.54 76.642 L 159.561 75.401 L 160.803 74.421 L 157.826 69.117 L 158.728 67.197 Z  M 81.331 97.241 L 80.845 103.263 C 78.933 105.637 79.16 108.781 80.098 111.506 L 80.098 111.506 L 78.44 108.383 L 78.663 104.582 L 79.905 103.602 L 78.285 102.06 L 81.331 97.241 Z  M 156.511 131.78 L 158.091 131.742 L 159.071 132.983 L 159.333 130.763 L 160.312 132.004 L 160.991 133.885 L 162.047 138.288 C 158.8 137.487 156.215 135.381 156.511 131.78 L 156.511 131.78 Z  M 99.439 165.124 L 101.397 167.607 L 102.978 167.568 L 103.094 172.31 L 99.439 165.124 Z " fill-rule="evenodd" fill="rgb(87,87,87)"/><path d=" M 71.454 249.633 L 83.313 255.986 L 71.454 249.633 Z  M 253.944 183.806 L 248.871 196.267 L 253.944 183.806 Z " fill-rule="evenodd" fill="rgb(255,255,255)"/><path d=" M 193.14 206.803 L 194.798 209.925 L 193.973 215.007 L 193.934 213.426 L 193.14 206.803 Z  M 147.927 246.499 L 150.448 246.121 L 152.708 247.964 L 157.45 247.848 L 156.208 248.827 C 153.42 249.169 149.636 249.202 147.927 246.499 L 147.927 246.499 Z " fill-rule="evenodd" fill="rgb(87,87,87)"/></g></g></svg>